<svg width="0" height="0" display="none" xmlns="http://www.w3.org/2000/svg" aria-hidden="true" style="width: 0px; height: 0px; overflow: hidden; position: absolute;" version="1.1">
<symbol id="icon_home" viewBox="0 0 576 512"><path d="M280.37 148.26L96 300.11V464a16 16 0 0 0 16 16l112.06-.29a16 16 0 0 0 15.92-16V368a16 16 0 0 1 16-16h64a16 16 0 0 1 16 16v95.64a16 16 0 0 0 16 16.05L464 480a16 16 0 0 0 16-16V300L295.67 148.26a12.19 12.19 0 0 0-15.3 0zM571.6 251.47L488 182.56V44.05a12 12 0 0 0-12-12h-56a12 12 0 0 0-12 12v72.61L318.47 43a48 48 0 0 0-61 0L4.34 251.47a12 12 0 0 0-1.6 16.9l25.5 31A12 12 0 0 0 45.15 301l235.22-193.74a12.19 12.19 0 0 1 15.3 0L530.9 301a12 12 0 0 0 16.9-1.6l25.5-31a12 12 0 0 0-1.7-16.93z"></path>
</symbol>
<symbol id="icon_monitor" viewBox="0 0 640 512"><path d="M528 464H112a16 16 0 0 0-16 16v16a16 16 0 0 0 16 16h416a16 16 0 0 0 16-16v-16a16 16 0 0 0-16-16zM592 0H48A48 48 0 0 0 0 48v320a48 48 0 0 0 48 48h544a48 48 0 0 0 48-48V48a48 48 0 0 0-48-48zm0 368H48V48h544z"></path>
</symbol>
<symbol id="icon_call" viewBox="0 0 512 512"><path d="M497.39 361.8l-112-48a24 24 0 0 0-28 6.9l-49.6 60.6A370.66 370.66 0 0 1 130.6 204.11l60.6-49.6a23.94 23.94 0 0 0 6.9-28l-48-112A24.16 24.16 0 0 0 122.6.61l-104 24A24 24 0 0 0 0 48c0 256.5 207.9 464 464 464a24 24 0 0 0 23.4-18.6l24-104a24.29 24.29 0 0 0-14.01-27.6z"></path>
</symbol>
<symbol id="icon_check" viewBox="0 0 512 512"><path fill="currentColor" d="M435.848 83.466L172.804 346.51l-96.652-96.652c-4.686-4.686-12.284-4.686-16.971 0l-28.284 28.284c-4.686 4.686-4.686 12.284 0 16.971l133.421 133.421c4.686 4.686 12.284 4.686 16.971 0l299.813-299.813c4.686-4.686 4.686-12.284 0-16.971l-28.284-28.284c-4.686-4.686-12.284-4.686-16.97 0z"></path>
</symbol>
<symbol id="icon_send" viewBox="0 0 512 512"><path d="M440 6.5L24 246.4c-34.4 19.9-31.1 70.8 5.7 85.9L144 379.6V464c0 46.4 59.2 65.5 86.6 28.6l43.8-59.1 111.9 46.2c5.9 2.4 12.1 3.6 18.3 3.6 8.2 0 16.3-2.1 23.6-6.2 12.8-7.2 21.6-20 23.9-34.5l59.4-387.2c6.1-40.1-36.9-68.8-71.5-48.9zM192 464v-64.6l36.6 15.1L192 464zm212.6-28.7l-153.8-63.5L391 169.5c10.7-15.5-9.5-33.5-23.7-21.2L155.8 332.6 48 288 464 48l-59.4 387.3z"></path>
</symbol>
<symbol id="icon_envelope" viewBox="0 0 512 512"><path d="M502.3 190.8c3.9-3.1 9.7-.2 9.7 4.7V400c0 26.5-21.5 48-48 48H48c-26.5 0-48-21.5-48-48V195.6c0-5 5.7-7.8 9.7-4.7 22.4 17.4 52.1 39.5 154.1 113.6 21.1 15.4 56.7 47.8 92.2 47.6 35.7.3 72-32.8 92.3-47.6 102-74.1 131.6-96.3 154-113.7zM256 320c23.2.4 56.6-29.2 73.4-41.4 132.7-96.3 142.8-104.7 173.4-128.7 5.8-4.5 9.2-11.5 9.2-18.9v-19c0-26.5-21.5-48-48-48H48C21.5 64 0 85.5 0 112v19c0 7.4 3.4 14.3 9.2 18.9 30.6 23.9 40.7 32.4 173.4 128.7 16.8 12.2 50.2 41.8 73.4 41.4z"></path>
</symbol>
<symbol id="icon_chevronright" viewBox="0 0 256 512"><path d="M17.525 36.465l-7.071 7.07c-4.686 4.686-4.686 12.284 0 16.971L205.947 256 10.454 451.494c-4.686 4.686-4.686 12.284 0 16.971l7.071 7.07c4.686 4.686 12.284 4.686 16.97 0l211.051-211.05c4.686-4.686 4.686-12.284 0-16.971L34.495 36.465c-4.686-4.687-12.284-4.687-16.97 0z"></path></symbol>
<symbol id="icon_calendar" viewBox="0 0 448 512"><path d="M148 288h-40c-6.6 0-12-5.4-12-12v-40c0-6.6 5.4-12 12-12h40c6.6 0 12 5.4 12 12v40c0 6.6-5.4 12-12 12zm108-12v-40c0-6.6-5.4-12-12-12h-40c-6.6 0-12 5.4-12 12v40c0 6.6 5.4 12 12 12h40c6.6 0 12-5.4 12-12zm96 0v-40c0-6.6-5.4-12-12-12h-40c-6.6 0-12 5.4-12 12v40c0 6.6 5.4 12 12 12h40c6.6 0 12-5.4 12-12zm-96 96v-40c0-6.6-5.4-12-12-12h-40c-6.6 0-12 5.4-12 12v40c0 6.6 5.4 12 12 12h40c6.6 0 12-5.4 12-12zm-96 0v-40c0-6.6-5.4-12-12-12h-40c-6.6 0-12 5.4-12 12v40c0 6.6 5.4 12 12 12h40c6.6 0 12-5.4 12-12zm192 0v-40c0-6.6-5.4-12-12-12h-40c-6.6 0-12 5.4-12 12v40c0 6.6 5.4 12 12 12h40c6.6 0 12-5.4 12-12zm96-260v352c0 26.5-21.5 48-48 48H48c-26.5 0-48-21.5-48-48V112c0-26.5 21.5-48 48-48h48V12c0-6.6 5.4-12 12-12h40c6.6 0 12 5.4 12 12v52h128V12c0-6.6 5.4-12 12-12h40c6.6 0 12 5.4 12 12v52h48c26.5 0 48 21.5 48 48zm-48 346V160H48v298c0 3.3 2.7 6 6 6h340c3.3 0 6-2.7 6-6z"></path>
</symbol>
<symbol id="icon_location" viewBox="0 0 384 512"><path d="M172.268 501.67C26.97 291.031 0 269.413 0 192 0 85.961 85.961 0 192 0s192 85.961 192 192c0 77.413-26.97 99.031-172.268 309.67-9.535 13.774-29.93 13.773-39.464 0zM192 272c44.183 0 80-35.817 80-80s-35.817-80-80-80-80 35.817-80 80 35.817 80 80 80z"></path>
</symbol>
<symbol id="icon_profile" viewBox="0 0 576 512"><path d="M528 32H48C21.5 32 0 53.5 0 80v352c0 26.5 21.5 48 48 48h480c26.5 0 48-21.5 48-48V80c0-26.5-21.5-48-48-48zm-352 96c35.3 0 64 28.7 64 64s-28.7 64-64 64-64-28.7-64-64 28.7-64 64-64zm112 236.8c0 10.6-10 19.2-22.4 19.2H86.4C74 384 64 375.4 64 364.8v-19.2c0-31.8 30.1-57.6 67.2-57.6h5c12.3 5.1 25.7 8 39.8 8s27.6-2.9 39.8-8h5c37.1 0 67.2 25.8 67.2 57.6v19.2zM512 312c0 4.4-3.6 8-8 8H360c-4.4 0-8-3.6-8-8v-16c0-4.4 3.6-8 8-8h144c4.4 0 8 3.6 8 8v16zm0-64c0 4.4-3.6 8-8 8H360c-4.4 0-8-3.6-8-8v-16c0-4.4 3.6-8 8-8h144c4.4 0 8 3.6 8 8v16zm0-64c0 4.4-3.6 8-8 8H360c-4.4 0-8-3.6-8-8v-16c0-4.4 3.6-8 8-8h144c4.4 0 8 3.6 8 8v16z"></path>
</symbol>
<symbol id="icon_logout" viewBox="0 0 512 512"><path d="M497 273L329 441c-15 15-41 4.5-41-17v-96H152c-13.3 0-24-10.7-24-24v-96c0-13.3 10.7-24 24-24h136V88c0-21.4 25.9-32 41-17l168 168c9.3 9.4 9.3 24.6 0 34zM192 436v-40c0-6.6-5.4-12-12-12H96c-17.7 0-32-14.3-32-32V160c0-17.7 14.3-32 32-32h84c6.6 0 12-5.4 12-12V76c0-6.6-5.4-12-12-12H96c-53 0-96 43-96 96v192c0 53 43 96 96 96h84c6.6 0 12-5.4 12-12z"></path>
</symbol>
<symbol id="icon_edit" viewBox="0 0 576 512"><path d="M402.6 83.2l90.2 90.2c3.8 3.8 3.8 10 0 13.8L274.4 405.6l-92.8 10.3c-12.4 1.4-22.9-9.1-21.5-21.5l10.3-92.8L388.8 83.2c3.8-3.8 10-3.8 13.8 0zm162-22.9l-48.8-48.8c-15.2-15.2-39.9-15.2-55.2 0l-35.4 35.4c-3.8 3.8-3.8 10 0 13.8l90.2 90.2c3.8 3.8 10 3.8 13.8 0l35.4-35.4c15.2-15.3 15.2-40 0-55.2zM384 346.2V448H64V128h229.8c3.2 0 6.2-1.3 8.5-3.5l40-40c7.6-7.6 2.2-20.5-8.5-20.5H48C21.5 64 0 85.5 0 112v352c0 26.5 21.5 48 48 48h352c26.5 0 48-21.5 48-48V306.2c0-10.7-12.9-16-20.5-8.5l-40 40c-2.2 2.3-3.5 5.3-3.5 8.5z"></path>
</symbol>
<symbol id="icon_pen" viewBox="0 0 512 512"><path d="M290.74 93.24l128.02 128.02-277.99 277.99-114.14 12.6C11.35 513.54-1.56 500.62.14 485.34l12.7-114.22 277.9-277.88zm207.2-19.06l-60.11-60.11c-18.75-18.75-49.16-18.75-67.91 0l-56.55 56.55 128.02 128.02 56.55-56.55c18.75-18.76 18.75-49.16 0-67.91z"></path>
</symbol>
<symbol id="icon_reply" viewBox="0 0 512 512"><path d="M8.309 189.836L184.313 37.851C199.719 24.546 224 35.347 224 56.015v80.053c160.629 1.839 288 34.032 288 186.258 0 61.441-39.581 122.309-83.333 154.132-13.653 9.931-33.111-2.533-28.077-18.631 45.344-145.012-21.507-183.51-176.59-185.742V360c0 20.7-24.3 31.453-39.687 18.164l-176.004-152c-11.071-9.562-11.086-26.753 0-36.328z"></path>
</symbol>
<symbol id="icon_help" viewBox="0 0 512 512"><path d="M504 256c0 136.997-111.043 248-248 248S8 392.997 8 256C8 119.083 119.043 8 256 8s248 111.083 248 248zM262.655 90c-54.497 0-89.255 22.957-116.549 63.758-3.536 5.286-2.353 12.415 2.715 16.258l34.699 26.31c5.205 3.947 12.621 3.008 16.665-2.122 17.864-22.658 30.113-35.797 57.303-35.797 20.429 0 45.698 13.148 45.698 32.958 0 14.976-12.363 22.667-32.534 33.976C247.128 238.528 216 254.941 216 296v4c0 6.627 5.373 12 12 12h56c6.627 0 12-5.373 12-12v-1.333c0-28.462 83.186-29.647 83.186-106.667 0-58.002-60.165-102-116.531-102zM256 338c-25.365 0-46 20.635-46 46 0 25.364 20.635 46 46 46s46-20.636 46-46c0-25.365-20.635-46-46-46z"></path>
</symbol>
<symbol id="icon_pause" viewBox="0 0 512 512"><path d="M256 8C119 8 8 119 8 256s111 248 248 248 248-111 248-248S393 8 256 8zm-16 328c0 8.8-7.2 16-16 16h-48c-8.8 0-16-7.2-16-16V176c0-8.8 7.2-16 16-16h48c8.8 0 16 7.2 16 16v160zm112 0c0 8.8-7.2 16-16 16h-48c-8.8 0-16-7.2-16-16V176c0-8.8 7.2-16 16-16h48c8.8 0 16 7.2 16 16v160z"></path>
</symbol>
<symbol id="icon_puzzle" viewBox="0 0 576 512"><path d="M519.442 288.651c-41.519 0-59.5 31.593-82.058 31.593C377.409 320.244 432 144 432 144s-196.288 80-196.288-3.297c0-35.827 36.288-46.25 36.288-85.985C272 19.216 243.885 0 210.539 0c-34.654 0-66.366 18.891-66.366 56.346 0 41.364 31.711 59.277 31.711 81.75C175.885 207.719 0 166.758 0 166.758v333.237s178.635 41.047 178.635-28.662c0-22.473-40-40.107-40-81.471 0-37.456 29.25-56.346 63.577-56.346 33.673 0 61.788 19.216 61.788 54.717 0 39.735-36.288 50.158-36.288 85.985 0 60.803 129.675 25.73 181.23 25.73 0 0-34.725-120.101 25.827-120.101 35.962 0 46.423 36.152 86.308 36.152C556.712 416 576 387.99 576 354.443c0-34.199-18.962-65.792-56.558-65.792z"></path>
</symbol>
<symbol id="icon_chart" viewBox="0 0 544 512"><path d="M527.79 288H290.5l158.03 158.03c6.04 6.04 15.98 6.53 22.19.68 38.7-36.46 65.32-85.61 73.13-140.86 1.34-9.46-6.51-17.85-16.06-17.85zm-15.83-64.8C503.72 103.74 408.26 8.28 288.8.04 279.68-.59 272 7.1 272 16.24V240h223.77c9.14 0 16.82-7.68 16.19-16.8zM224 288V50.71c0-9.55-8.39-17.4-17.84-16.06C86.99 51.49-4.1 155.6.14 280.37 4.5 408.51 114.83 513.59 243.03 511.98c50.4-.63 96.97-16.87 135.26-44.03 7.9-5.6 8.42-17.23 1.57-24.08L224 288z"></path>
</symbol>
<symbol id="icon_file" viewBox="0 0 384 512"><path d="M224 136V0H24C10.7 0 0 10.7 0 24v464c0 13.3 10.7 24 24 24h336c13.3 0 24-10.7 24-24V160H248c-13.2 0-24-10.8-24-24zm64 236c0 6.6-5.4 12-12 12H108c-6.6 0-12-5.4-12-12v-8c0-6.6 5.4-12 12-12h168c6.6 0 12 5.4 12 12v8zm0-64c0 6.6-5.4 12-12 12H108c-6.6 0-12-5.4-12-12v-8c0-6.6 5.4-12 12-12h168c6.6 0 12 5.4 12 12v8zm0-72v8c0 6.6-5.4 12-12 12H108c-6.6 0-12-5.4-12-12v-8c0-6.6 5.4-12 12-12h168c6.6 0 12 5.4 12 12zm96-114.1v6.1H256V0h6.1c6.4 0 12.5 2.5 17 7l97.9 98c4.5 4.5 7 10.6 7 16.9z"></path>
</symbol>
<symbol id="icon_times" viewBox="0 0 320 512"><path d="M207.6 256l107.72-107.72c6.23-6.23 6.23-16.34 0-22.58l-25.03-25.03c-6.23-6.23-16.34-6.23-22.58 0L160 208.4 52.28 100.68c-6.23-6.23-16.34-6.23-22.58 0L4.68 125.7c-6.23 6.23-6.23 16.34 0 22.58L112.4 256 4.68 363.72c-6.23 6.23-6.23 16.34 0 22.58l25.03 25.03c6.23 6.23 16.34 6.23 22.58 0L160 303.6l107.72 107.72c6.23 6.23 16.34 6.23 22.58 0l25.03-25.03c6.23-6.23 6.23-16.34 0-22.58L207.6 256z"></path>
</symbol>
<symbol id="icon_times2" viewBox="0 0 512 512"><path d="M256 8C119 8 8 119 8 256s111 248 248 248 248-111 248-248S393 8 256 8zm0 448c-110.5 0-200-89.5-200-200S145.5 56 256 56s200 89.5 200 200-89.5 200-200 200zm101.8-262.2L295.6 256l62.2 62.2c4.7 4.7 4.7 12.3 0 17l-22.6 22.6c-4.7 4.7-12.3 4.7-17 0L256 295.6l-62.2 62.2c-4.7 4.7-12.3 4.7-17 0l-22.6-22.6c-4.7-4.7-4.7-12.3 0-17l62.2-62.2-62.2-62.2c-4.7-4.7-4.7-12.3 0-17l22.6-22.6c4.7-4.7 12.3-4.7 17 0l62.2 62.2 62.2-62.2c4.7-4.7 12.3-4.7 17 0l22.6 22.6c4.7 4.7 4.7 12.3 0 17z"></path>
</symbol>
<symbol id="icon_bell" viewBox="0 0 448 512"><path d="M224 512c35.32 0 63.97-28.65 63.97-64H160.03c0 35.35 28.65 64 63.97 64zm215.39-149.71c-19.32-20.76-55.47-51.99-55.47-154.29 0-77.7-54.48-139.9-127.94-155.16V32c0-17.67-14.32-32-31.98-32s-31.98 14.33-31.98 32v20.84C118.56 68.1 64.08 130.3 64.08 208c0 102.3-36.15 133.53-55.47 154.29-6 6.45-8.66 14.16-8.61 21.71.11 16.4 12.98 32 32.1 32h383.8c19.12 0 32-15.6 32.1-32 .05-7.55-2.61-15.27-8.61-21.71z"></path>
</symbol>
<symbol id="icon_dot" viewBox="0 0 512 512"><path d="M256 8C119 8 8 119 8 256s111 248 248 248 248-111 248-248S393 8 256 8z"></path>
</symbol>
<symbol id="icon_plus" viewBox="0 0 448 512"><path d="M416 208H272V64c0-17.67-14.33-32-32-32h-32c-17.67 0-32 14.33-32 32v144H32c-17.67 0-32 14.33-32 32v32c0 17.67 14.33 32 32 32h144v144c0 17.67 14.33 32 32 32h32c17.67 0 32-14.33 32-32V304h144c17.67 0 32-14.33 32-32v-32c0-17.67-14.33-32-32-32z"></path>
</symbol>
<symbol id="icon_bars" viewBox="0 0 448 512"><path d="M436 124H12c-6.627 0-12-5.373-12-12V80c0-6.627 5.373-12 12-12h424c6.627 0 12 5.373 12 12v32c0 6.627-5.373 12-12 12zm0 160H12c-6.627 0-12-5.373-12-12v-32c0-6.627 5.373-12 12-12h424c6.627 0 12 5.373 12 12v32c0 6.627-5.373 12-12 12zm0 160H12c-6.627 0-12-5.373-12-12v-32c0-6.627 5.373-12 12-12h424c6.627 0 12 5.373 12 12v32c0 6.627-5.373 12-12 12z"></path>
</symbol>
<symbol id="icon_eye" viewBox="0 0 576 512"><path d="M572.52 241.4C518.29 135.59 410.93 64 288 64S57.68 135.64 3.48 241.41a32.35 32.35 0 0 0 0 29.19C57.71 376.41 165.07 448 288 448s230.32-71.64 284.52-177.41a32.35 32.35 0 0 0 0-29.19zM288 400a144 144 0 1 1 144-144 143.93 143.93 0 0 1-144 144zm0-240a95.31 95.31 0 0 0-25.31 3.79 47.85 47.85 0 0 1-66.9 66.9A95.78 95.78 0 1 0 288 160z"></path>
</symbol>
<symbol id="icon_vdots" viewBox="0 0 128 512"><path d="M64 208c26.5 0 48 21.5 48 48s-21.5 48-48 48-48-21.5-48-48 21.5-48 48-48zM16 104c0 26.5 21.5 48 48 48s48-21.5 48-48-21.5-48-48-48-48 21.5-48 48zm0 304c0 26.5 21.5 48 48 48s48-21.5 48-48-21.5-48-48-48-48 21.5-48 48z"></path>
</symbol>
<symbol id="icon_arrowdown" viewBox="0 0 448 512"><path d="M441.9 250.1l-19.8-19.8c-4.7-4.7-12.3-4.7-17 0L250 385.4V44c0-6.6-5.4-12-12-12h-28c-6.6 0-12 5.4-12 12v341.4L42.9 230.3c-4.7-4.7-12.3-4.7-17 0L6.1 250.1c-4.7 4.7-4.7 12.3 0 17l209.4 209.4c4.7 4.7 12.3 4.7 17 0l209.4-209.4c4.7-4.7 4.7-12.3 0-17z"></path>
</symbol>
<symbol id="icon_manageuser" viewBox="0 0 640 512"><path d="M340.3 464H48v-25.6c0-47.6 38.8-86.4 86.4-86.4 14.6 0 38.3 16 89.6 16 42.6 0 70-11.9 80.1-14.4-.1-7.5-.1-24.8 6.1-49.2-28.6 1.4-40.9 15.6-86.2 15.6-47.1 0-60.8-16-89.6-16C60.2 304 0 364.2 0 438.4V464c0 26.5 21.5 48 48 48h342c-19.4-12.9-36.2-29.2-49.7-48zM224 288c79.5 0 144-64.5 144-144S303.5 0 224 0 80 64.5 80 144s64.5 144 144 144zm0-240c52.9 0 96 43.1 96 96s-43.1 96-96 96-96-43.1-96-96 43.1-96 96-96zm386.5 325.3c2.6-14.1 2.6-28.5 0-42.6l25.8-14.9c3-1.7 4.3-5.2 3.3-8.5-6.7-21.6-18.2-41.2-33.2-57.4-2.3-2.5-6-3.1-9-1.4l-25.8 14.9c-10.9-9.3-23.4-16.5-36.9-21.3v-29.8c0-3.4-2.4-6.4-5.7-7.1-22.3-5-45-4.8-66.2 0-3.3.7-5.7 3.7-5.7 7.1v29.8c-13.5 4.8-26 12-36.9 21.3l-25.8-14.9c-2.9-1.7-6.7-1.1-9 1.4-15 16.2-26.5 35.8-33.2 57.4-1 3.3.4 6.8 3.3 8.5l25.8 14.9c-2.6 14.1-2.6 28.5 0 42.6l-25.8 14.9c-3 1.7-4.3 5.2-3.3 8.5 6.7 21.6 18.2 41.1 33.2 57.4 2.3 2.5 6 3.1 9 1.4l25.8-14.9c10.9 9.3 23.4 16.5 36.9 21.3v29.8c0 3.4 2.4 6.4 5.7 7.1 22.3 5 45 4.8 66.2 0 3.3-.7 5.7-3.7 5.7-7.1v-29.8c13.5-4.8 26-12 36.9-21.3l25.8 14.9c2.9 1.7 6.7 1.1 9-1.4 15-16.2 26.5-35.8 33.2-57.4 1-3.3-.4-6.8-3.3-8.5l-25.8-14.9zM496 400.5c-26.8 0-48.5-21.8-48.5-48.5s21.8-48.5 48.5-48.5 48.5 21.8 48.5 48.5-21.7 48.5-48.5 48.5z"></path>
</symbol>
<symbol id="icon_listing" viewBox="0 0 384 512"><path d="M280 240H168c-4.4 0-8 3.6-8 8v16c0 4.4 3.6 8 8 8h112c4.4 0 8-3.6 8-8v-16c0-4.4-3.6-8-8-8zm0 96H168c-4.4 0-8 3.6-8 8v16c0 4.4 3.6 8 8 8h112c4.4 0 8-3.6 8-8v-16c0-4.4-3.6-8-8-8zM112 232c-13.3 0-24 10.7-24 24s10.7 24 24 24 24-10.7 24-24-10.7-24-24-24zm0 96c-13.3 0-24 10.7-24 24s10.7 24 24 24 24-10.7 24-24-10.7-24-24-24zM336 64h-88.6c.4-2.6.6-5.3.6-8 0-30.9-25.1-56-56-56s-56 25.1-56 56c0 2.7.2 5.4.6 8H48C21.5 64 0 85.5 0 112v352c0 26.5 21.5 48 48 48h288c26.5 0 48-21.5 48-48V112c0-26.5-21.5-48-48-48zM192 32c13.3 0 24 10.7 24 24s-10.7 24-24 24-24-10.7-24-24 10.7-24 24-24zm160 432c0 8.8-7.2 16-16 16H48c-8.8 0-16-7.2-16-16V112c0-8.8 7.2-16 16-16h48v20c0 6.6 5.4 12 12 12h168c6.6 0 12-5.4 12-12V96h48c8.8 0 16 7.2 16 16v352z"></path>
</symbol>
<symbol id="icon_adduser" viewBox="0 0 640 512"><path d="M624 208h-64v-64c0-8.8-7.2-16-16-16h-32c-8.8 0-16 7.2-16 16v64h-64c-8.8 0-16 7.2-16 16v32c0 8.8 7.2 16 16 16h64v64c0 8.8 7.2 16 16 16h32c8.8 0 16-7.2 16-16v-64h64c8.8 0 16-7.2 16-16v-32c0-8.8-7.2-16-16-16zm-400 48c70.7 0 128-57.3 128-128S294.7 0 224 0 96 57.3 96 128s57.3 128 128 128zm89.6 32h-16.7c-22.2 10.2-46.9 16-72.9 16s-50.6-5.8-72.9-16h-16.7C60.2 288 0 348.2 0 422.4V464c0 26.5 21.5 48 48 48h352c26.5 0 48-21.5 48-48v-41.6c0-74.2-60.2-134.4-134.4-134.4z"></path>
</symbol>
<symbol id="icon_teacher" viewBox="0 0 640 512"><path d="M208 352c-2.39 0-4.78.35-7.06 1.09C187.98 357.3 174.35 360 160 360c-14.35 0-27.98-2.7-40.95-6.91-2.28-.74-4.66-1.09-7.05-1.09C49.94 352-.33 402.48 0 464.62.14 490.88 21.73 512 48 512h224c26.27 0 47.86-21.12 48-47.38.33-62.14-49.94-112.62-112-112.62zm-48-32c53.02 0 96-42.98 96-96s-42.98-96-96-96-96 42.98-96 96 42.98 96 96 96zM592 0H208c-26.47 0-48 22.25-48 49.59V96c23.42 0 45.1 6.78 64 17.8V64h352v288h-64v-64H384v64h-76.24c19.1 16.69 33.12 38.73 39.69 64H592c26.47 0 48-22.25 48-49.59V49.59C640 22.25 618.47 0 592 0z"></path>
</symbol>
<symbol id="icon_support" viewBox="0 0 448 512"><path d="M320 352h-23.1a174.08 174.08 0 0 1-145.8 0H128A128 128 0 0 0 0 480a32 32 0 0 0 32 32h384a32 32 0 0 0 32-32 128 128 0 0 0-128-128zM48 224a16 16 0 0 0 16-16v-16c0-88.22 71.78-160 160-160s160 71.78 160 160v16a80.09 80.09 0 0 1-80 80h-32a32 32 0 0 0-32-32h-32a32 32 0 0 0 0 64h96a112.14 112.14 0 0 0 112-112v-16C416 86.13 329.87 0 224 0S32 86.13 32 192v16a16 16 0 0 0 16 16zm160 0h32a64 64 0 0 1 55.41 32H304a48.05 48.05 0 0 0 48-48v-16a128 128 0 0 0-256 0c0 40.42 19.1 76 48.35 99.47-.06-1.17-.35-2.28-.35-3.47a64.07 64.07 0 0 1 64-64z"></path>
</symbol>
<symbol id="icon_login" viewBox="0 0 512 512"><path d="M416 448h-84c-6.6 0-12-5.4-12-12v-40c0-6.6 5.4-12 12-12h84c17.7 0 32-14.3 32-32V160c0-17.7-14.3-32-32-32h-84c-6.6 0-12-5.4-12-12V76c0-6.6 5.4-12 12-12h84c53 0 96 43 96 96v192c0 53-43 96-96 96zm-47-201L201 79c-15-15-41-4.5-41 17v96H24c-13.3 0-24 10.7-24 24v96c0 13.3 10.7 24 24 24h136v96c0 21.5 26 32 41 17l168-168c9.3-9.4 9.3-24.6 0-34z"></path>
</symbol>
<symbol id="icon_trash" viewBox="0 0 448 512"><path d="M268 416h24a12 12 0 0 0 12-12V188a12 12 0 0 0-12-12h-24a12 12 0 0 0-12 12v216a12 12 0 0 0 12 12zM432 80h-82.41l-34-56.7A48 48 0 0 0 274.41 0H173.59a48 48 0 0 0-41.16 23.3L98.41 80H16A16 16 0 0 0 0 96v16a16 16 0 0 0 16 16h16v336a48 48 0 0 0 48 48h288a48 48 0 0 0 48-48V128h16a16 16 0 0 0 16-16V96a16 16 0 0 0-16-16zM171.84 50.91A6 6 0 0 1 177 48h94a6 6 0 0 1 5.15 2.91L293.61 80H154.39zM368 464H80V128h288zm-212-48h24a12 12 0 0 0 12-12V188a12 12 0 0 0-12-12h-24a12 12 0 0 0-12 12v216a12 12 0 0 0 12 12z"></path>
</symbol>
<symbol id="icon_nodate" viewBox="0 0 448 512"><path d="M188.6 212.7l6.5 104c.4 6.3 5.6 11.3 12 11.3h33.8c6.3 0 11.6-4.9 12-11.3l6.5-104c.4-6.9-5.1-12.7-12-12.7h-46.8c-6.9 0-12.4 5.8-12 12.7zM264 384c0 22.1-17.9 40-40 40s-40-17.9-40-40 17.9-40 40-40 40 17.9 40 40zM400 64h-48V12c0-6.6-5.4-12-12-12h-40c-6.6 0-12 5.4-12 12v52H160V12c0-6.6-5.4-12-12-12h-40c-6.6 0-12 5.4-12 12v52H48C21.5 64 0 85.5 0 112v352c0 26.5 21.5 48 48 48h352c26.5 0 48-21.5 48-48V112c0-26.5-21.5-48-48-48zm-6 400H54c-3.3 0-6-2.7-6-6V160h352v298c0 3.3-2.7 6-6 6z"></path>
</symbol>
<symbol id="icon_12" viewBox="">
<path d="M506.528,115.962l-128-112c-4.704-4.128-11.392-5.12-17.152-2.528C355.648,4.026,352,9.722,352,15.994v48H224    c-123.52,0-224,100.48-224,224c0,123.488,100.48,224,224,224c8.832,0,16-7.168,16-16c0-8.832-7.168-16-16-16    c-79.392,0-144-64.608-144-144s64.608-144,144-144h128v48c0,6.272,3.648,11.968,9.376,14.56c5.728,2.624,12.448,1.6,17.152-2.528    l128-112c3.456-3.04,5.472-7.424,5.472-12.032C512,123.386,509.984,119.002,506.528,115.962z" data-original="#000000" class="active-path" data-old_color="#000000" fill="#FFFFFF"/></symbol>
<symbol id="icon_13" viewBox=""></symbol>
<symbol id="icon_facebook" viewBox="0 0 448 512"><path d="M400 32H48A48 48 0 0 0 0 80v352a48 48 0 0 0 48 48h137.25V327.69h-63V256h63v-54.64c0-62.15 37-96.48 93.67-96.48 27.14 0 55.52 4.84 55.52 4.84v61h-31.27c-30.81 0-40.42 19.12-40.42 38.73V256h68.78l-11 71.69h-57.78V480H400a48 48 0 0 0 48-48V80a48 48 0 0 0-48-48z"></path>
</symbol>
<symbol id="icon_twitter" viewBox="0 0 448 512"><path d="M400 32H48C21.5 32 0 53.5 0 80v352c0 26.5 21.5 48 48 48h352c26.5 0 48-21.5 48-48V80c0-26.5-21.5-48-48-48zm-48.9 158.8c.2 2.8.2 5.7.2 8.5 0 86.7-66 186.6-186.6 186.6-37.2 0-71.7-10.8-100.7-29.4 5.3.6 10.4.8 15.8.8 30.7 0 58.9-10.4 81.4-28-28.8-.6-53-19.5-61.3-45.5 10.1 1.5 19.2 1.5 29.6-1.2-30-6.1-52.5-32.5-52.5-64.4v-.8c8.7 4.9 18.9 7.9 29.6 8.3a65.447 65.447 0 0 1-29.2-54.6c0-12.2 3.2-23.4 8.9-33.1 32.3 39.8 80.8 65.8 135.2 68.6-9.3-44.5 24-80.6 64-80.6 18.9 0 35.9 7.9 47.9 20.7 14.8-2.8 29-8.3 41.6-15.8-4.9 15.2-15.2 28-28.8 36.1 13.2-1.4 26-5.1 37.8-10.2-8.9 13.1-20.1 24.7-32.9 34z"></path>
</symbol>
<symbol id="icon_linkedin" viewBox="0 0 448 512"><path d="M416 32H31.9C14.3 32 0 46.5 0 64.3v383.4C0 465.5 14.3 480 31.9 480H416c17.6 0 32-14.5 32-32.3V64.3c0-17.8-14.4-32.3-32-32.3zM135.4 416H69V202.2h66.5V416zm-33.2-243c-21.3 0-38.5-17.3-38.5-38.5S80.9 96 102.2 96c21.2 0 38.5 17.3 38.5 38.5 0 21.3-17.2 38.5-38.5 38.5zm282.1 243h-66.4V312c0-24.8-.5-56.7-34.5-56.7-34.6 0-39.9 27-39.9 54.9V416h-66.4V202.2h63.7v29.2h.9c8.9-16.8 30.6-34.5 62.9-34.5 67.2 0 79.7 44.3 79.7 101.9V416z"></path>
</symbol>
<symbol id="icon_youtube" viewBox="0 0 448 512"><path d="M186.8 202.1l95.2 54.1-95.2 54.1V202.1zM448 80v352c0 26.5-21.5 48-48 48H48c-26.5 0-48-21.5-48-48V80c0-26.5 21.5-48 48-48h352c26.5 0 48 21.5 48 48zm-42 176.3s0-59.6-7.6-88.2c-4.2-15.8-16.5-28.2-32.2-32.4C337.9 128 224 128 224 128s-113.9 0-142.2 7.7c-15.7 4.2-28 16.6-32.2 32.4-7.6 28.5-7.6 88.2-7.6 88.2s0 59.6 7.6 88.2c4.2 15.8 16.5 27.7 32.2 31.9C110.1 384 224 384 224 384s113.9 0 142.2-7.7c15.7-4.2 28-16.1 32.2-31.9 7.6-28.5 7.6-88.1 7.6-88.1z"></path>
</symbol>
<symbol id="icon_googleplus" viewBox="0 0 448 512"><path fill="currentColor" d="M400 32H48C21.5 32 0 53.5 0 80v352c0 26.5 21.5 48 48 48h352c26.5 0 48-21.5 48-48V80c0-26.5-21.5-48-48-48zM164 356c-55.3 0-100-44.7-100-100s44.7-100 100-100c27 0 49.5 9.8 67 26.2l-27.1 26.1c-7.4-7.1-20.3-15.4-39.8-15.4-34.1 0-61.9 28.2-61.9 63.2 0 34.9 27.8 63.2 61.9 63.2 39.6 0 54.4-28.5 56.8-43.1H164v-34.4h94.4c1 5 1.6 10.1 1.6 16.6 0 57.1-38.3 97.6-96 97.6zm220-81.8h-29v29h-29.2v-29h-29V245h29v-29H355v29h29v29.2z"></path>
</symbol>
<symbol id="student22" viewBox="0 0 448 512">
  <path d="M400.296,328v-51.696l-21.816,8.488l-0.064-0.144l-0.52-0.944c-8.36-13.016-21.88-22.072-37.104-24.832l-52.496-9.552    v-4.144c19.632-11.4,34.008-30.848,38.488-53.84c14.544-3.008,25.512-15.912,25.512-31.336V80.984    c0-22.328-14.624-41.8-35.84-48.136l-4-4C293.848,10.24,269.112,0,242.8,0c-54.312,0-98.504,44.184-98.504,98.504V160    c0,15.424,10.968,28.328,25.512,31.336c4.488,22.992,18.856,42.448,38.488,53.84v4.144l-52.488,9.544    c-15.208,2.76-28.72,11.8-37.088,24.808l-0.48,1.168l-21.944-8.536V328c-13.232,0-24,10.768-24,24v32c0,13.232,10.768,24,24,24    v29.472l152,59.12l152-59.12V408c13.232,0,24-10.768,24-24v-32C424.296,338.768,413.528,328,400.296,328z M303.288,268.312    l34.64,6.296c10.2,1.856,19.232,7.744,25.256,16.128l-77.4,30.096L303.288,268.312z M224.976,252.512    c7.384,2.256,15.208,3.488,23.32,3.488s15.936-1.232,23.32-3.488L248.296,270L224.976,252.512z M236.12,280.864l-16.328,16.32    L209.2,265.416l5.096-0.92L236.12,280.864z M282.296,264.504l5.096,0.92L276.8,297.192l-16.328-16.32L282.296,264.504z     M328.296,173.776v-27.552c4.76,2.776,8,7.88,8,13.776S333.056,171,328.296,173.776z M168.296,173.776    c-4.76-2.776-8-7.88-8-13.776s3.24-11,8-13.776V173.776z M168.296,120v9.136c-2.848,0.744-5.52,1.864-8,3.312V98.504    C160.296,53.016,197.304,16,242.8,16c22.032,0,42.76,8.584,58.344,24.168l7.056,7.064l2.152,0.528    c15.28,3.816,25.944,17.48,25.944,33.224v51.464c-2.48-1.448-5.152-2.576-8-3.312V120h-25.368c-21.68,0-42.4-10.352-55.4-27.688    l-6.36-8.496L225.272,99.72C212.184,112.8,194.792,120,176.296,120H168.296z M184.296,176v-40.368    c19.752-1.832,38.08-10.4,52.288-24.6l3.112-3.112c16.04,17.704,39.144,28.08,63.232,28.08h9.368v40c0,35.288-28.712,64-64,64    C213.008,240,184.296,211.288,184.296,176z M158.664,274.608l34.64-6.296l17.504,52.52l-77.416-30.104    C139.416,282.336,148.464,276.464,158.664,274.608z M88.296,384v-32c0-4.416,3.592-8,8-8c13.232,0,24,10.768,24,24    s-10.768,24-24,24C91.888,392,88.296,388.416,88.296,384z M240.296,476.304l-128-49.768v-21.928c14.104-6.192,24-20.248,24-36.608    c0-16.36-9.896-30.416-24-36.608v-31.696l128,49.776V476.304z M216.544,323.072l31.752-31.76l31.752,31.752l-31.752,12.352    L216.544,323.072z M384.296,426.528l-128,49.768V349.472l128-49.776v31.696c-14.104,6.192-24,20.248-24,36.608    c0,16.36,9.896,30.416,24,36.608V426.528z M408.296,384c0,4.416-3.592,8-8,8c-13.232,0-24-10.768-24-24s10.768-24,24-24    c4.408,0,8,3.584,8,8V384z" data-original="#000000" class="active-path" data-old_color="#000000" fill="#FFFFFF"/>
</symbol>
<symbol id="teacher" viewBox="0 0 448 512">
<path d="m96 177.376a24 24 0 0 0 4.592 46.378 111.652 111.652 0 0 1 -4.592-31.754z" data-original="#000000" class="active-path" data-old_color="#000000" fill="#E3E9ED"/><path d="m136.022 168h-24.022v16h16.805a39.841 39.841 0 0 1 7.217-16z" data-original="#000000" class="active-path" data-old_color="#000000" fill="#E3E9ED"/><path d="m232 88a8 8 0 0 1 8-8 80.091 80.091 0 0 1 80 80v.805a39.841 39.841 0 0 1 16 7.217v-8.022a128 128 0 0 0 -256 0v8.022a39.841 39.841 0 0 1 16-7.217v-.805a8 8 0 0 1 8-8h72c30.879 0 56-28.71 56-64z" data-original="#000000" class="active-path" data-old_color="#000000" fill="#E3E9ED"/><path d="m144 192a24 24 0 1 0 24-24 24.028 24.028 0 0 0 -24 24zm32 0a8 8 0 1 1 -8-8 8 8 0 0 1 8 8z" data-original="#000000" class="active-path" data-old_color="#000000" fill="#E3E9ED"/><path d="m96 456v16a8.009 8.009 0 0 0 8 8h24v-32h-24a8.009 8.009 0 0 0 -8 8z" data-original="#000000" class="active-path" data-old_color="#000000" fill="#E3E9ED"/><path d="m248 152a40.067 40.067 0 0 1 39.2 32h16.8v-24a64.082 64.082 0 0 0 -56.407-63.534c-3.066 32.242-23.438 58.826-50.574 68.048a39.844 39.844 0 0 1 10.981 27.486 40.045 40.045 0 0 1 40-40z" data-original="#000000" class="active-path" data-old_color="#000000" fill="#E3E9ED"/><path d="m472 448h-24v32h24a8.009 8.009 0 0 0 8-8v-16a8.009 8.009 0 0 0 -8-8z" data-original="#000000" class="active-path" data-old_color="#000000" fill="#E3E9ED"/><path d="m464 352h-96v128h64v-40a8 8 0 0 1 8-8h24zm-64 16h32a8 8 0 0 1 0 16h-32a8 8 0 0 1 0-16zm40 48h-47a8 8 0 0 1 0-16h47a8 8 0 0 1 0 16z" data-original="#000000" class="active-path" data-old_color="#000000" fill="#E3E9ED"/><path d="m303.664 200h-16.464a40 40 0 0 1 -79.2-8 40 40 0 0 1 -79.195 8h-16.469a96 96 0 0 0 191.328 0zm-67.226 54.656c-9.3 6.2-18.871 9.3-28.438 9.3s-19.136-3.1-28.438-9.3a8 8 0 1 1 8.876-13.312c13.345 8.9 25.779 8.9 39.124 0a8 8 0 0 1 8.876 13.312z" data-original="#000000" class="active-path" data-old_color="#000000" fill="#E3E9ED"/><path d="m160 328 32-24h-32z" data-original="#000000" class="active-path" data-old_color="#000000" fill="#E3E9ED"/><path d="m328 304h-56v32h80v-8a24.027 24.027 0 0 0 -24-24z" data-original="#000000" class="active-path" data-old_color="#000000" fill="#E3E9ED"/><path d="m224 192a24 24 0 1 0 24-24 24.028 24.028 0 0 0 -24 24zm32 0a8 8 0 1 1 -8-8 8 8 0 0 1 8 8z" data-original="#000000" class="active-path" data-old_color="#000000" fill="#E3E9ED"/><path d="m256 352h96v128h-96z" data-original="#000000" class="active-path" data-old_color="#000000" fill="#E3E9ED"/><path d="m216 480h24v-136a7.974 7.974 0 0 1 2.7-5.978l-26.7-20.022z" data-original="#000000" class="active-path" data-old_color="#000000" fill="#E3E9ED"/><path d="m256 304h-32l32 24z" data-original="#000000" class="active-path" data-old_color="#000000" fill="#E3E9ED"/><path d="m156.8 350.4a8 8 0 0 1 -12.8-6.4v-40h-56a24.027 24.027 0 0 0 -24 24v14.112l-32.845-65.69h-.006a7.993 7.993 0 1 0 -14.3 7.15h-.006l47.157 94.316v102.112h17.376a23.889 23.889 0 0 1 -1.376-8v-16a24.014 24.014 0 0 1 24-24h32a8 8 0 0 1 8 8v40h56v-162z" data-original="#000000" class="active-path" data-old_color="#000000" fill="#E3E9ED"/>
</symbol>
<symbol id="student" viewBox="0 0 448 512">
<path d="m285.191 477.238-7.408-10.784c-6.286 3.211-13.394 5.036-20.925 5.036s-14.64-1.825-20.927-5.037l-8.123 11.827 28.203 32.008z" data-original="#000000" class="active-path" data-old_color="#000000" fill="#E3E9ED"/><path d="m256.858 441.49c8.91 0 16.158-7.249 16.158-16.158v-16.239c-5.617.915-11.314 1.388-17.03 1.388-5.126 0-10.234-.398-15.286-1.136v15.987c0 8.909 7.248 16.158 16.158 16.158z" data-original="#000000" class="active-path" data-old_color="#000000" fill="#E3E9ED"/><path d="m421.028 368.71-126.509 143.29h169.433c8.284 0 15-6.716 15-15v-52.838c-.001-33.576-22.6-62.809-57.924-75.452z" data-original="#000000" class="active-path" data-old_color="#000000" fill="#E3E9ED"/><path d="m33.049 444.162v52.838c0 8.284 6.716 15 15 15h169.486l-126.332-143.376c-35.458 12.597-58.154 41.889-58.154 75.538z" data-original="#000000" class="active-path" data-old_color="#000000" fill="#E3E9ED"/><path d="m320.391 388.828c-5.431 4.129-11.264 7.694-17.374 10.689v25.815c0 6.746-1.467 13.152-4.079 18.934l6.723 9.787 83.193-94.228c-8.897-2.193-18.712-4.519-28.489-6.786-10.644 11.769-23.681 23.402-39.974 35.789z" data-original="#000000" class="active-path" data-old_color="#000000" fill="#E3E9ED"/><path d="m214.778 444.263c-2.611-5.781-4.078-12.187-4.078-18.932v-24.975c-6.747-3.157-13.171-7.008-19.117-11.528-16.233-12.34-29.233-23.934-39.857-35.659-9.729 2.223-19.468 4.499-28.298 6.647l83.929 95.251z" data-original="#000000" class="active-path" data-old_color="#000000" fill="#E3E9ED"/><path d="m373.773 181.036.001-44.422-101.057 43.911c-.417.182-.84.343-1.261.511z" data-original="#000000" class="active-path" data-old_color="#000000" fill="#E3E9ED"/><path d="m302.839 365.741c25.283-19.22 41.547-35.993 52.735-54.387 12.537-20.609 18.314-42.643 18.181-69.272v-31.046h-235.513l.014 35.171c.478 24.842 6.28 45.646 18.143 65.146 11.188 18.394 27.452 35.167 52.735 54.388 13.351 10.149 29.991 15.739 46.854 15.739 16.862 0 33.501-5.589 46.851-15.739z" data-original="#000000" class="active-path" data-old_color="#000000" fill="#E3E9ED"/><path d="m138.236 181.036h102.309c-.423-.168-.847-.331-1.266-.513l-101.076-43.919z" data-original="#000000" class="active-path" data-old_color="#000000" fill="#E3E9ED"/><path d="m102.283 89.377 148.556 64.55c1.646.715 3.403 1.073 5.16 1.073 1.758 0 3.515-.357 5.16-1.073l148.556-64.55c4.719-2.05 7.776-6.7 7.789-11.845s-3.022-9.81-7.732-11.883l-146.625-64.551c-3.285-1.447-7.025-1.465-10.322-.049l-150.486 64.551c-4.749 2.037-7.833 6.703-7.845 11.871-.012 5.167 3.049 9.847 7.789 11.906z" data-original="#000000" class="active-path" data-old_color="#000000" fill="#E3E9ED"/>
</symbol>
<symbol id="schoolsetting" viewBox="0 0 448 512">
<path d="M512,313.608V198.392l-48.418-9.399c-3.575-11.049-8.039-21.811-13.342-32.161l27.657-40.891L396.51,34.388L355.565,61.96    c-10.469-5.39-21.365-9.922-32.559-13.543L313.608,0H198.392l-9.398,48.417c-11.049,3.575-21.812,8.04-32.162,13.342    l-40.89-27.656l-81.553,81.388l27.572,40.944c-5.39,10.468-9.922,21.365-13.543,32.558L0,198.392v115.216l48.417,9.399    c3.575,11.049,8.04,21.811,13.342,32.161l-27.656,40.89l81.387,81.553l40.945-27.571c10.468,5.39,21.365,9.922,32.558,13.543    L198.392,512h115.217l9.398-48.417c11.05-3.575,21.812-8.04,32.161-13.342l40.892,27.656l81.552-81.387l-27.571-40.945    c5.39-10.469,9.922-21.365,13.543-32.558L512,313.608z M256,150.051c26.018,0,47.185,21.167,47.185,47.185    S282.018,244.42,256,244.42s-47.185-21.167-47.185-47.185S229.982,150.051,256,150.051z M334.729,349.949H177.272v-36.856    c0-29.303,23.84-53.144,53.144-53.144h51.169c29.304,0,53.144,23.84,53.144,53.144V349.949z" data-original="#000000" class="active-path" data-old_color="#000000" fill="#E3E9ED"/>
</symbol>
<symbol id="class" viewBox="0 0 448 512">
<path d="m30 45c0 24.8125 20.1875 45 45 45s45-20.1875 45-45-20.1875-45-45-45-45 20.1875-45 45zm0 0" data-original="#000000" class="active-path" data-old_color="#000000" fill="#E3E9ED"/><path d="m497 0h-302c-8.289062 0-15 6.710938-15 15v75h60c25.269531 0 46.832031 15.742188 55.660156 37.898438l133.628906-66.316407c7.429688-3.660156 16.40625-.703125 20.128907 6.707031 3.707031 7.414063.703125 16.421876-6.707031 20.128907l-143.699219 71.347656c-4.695313 28.433594-29.265625 50.234375-59.011719 50.234375h-60v45c0 8.289062 6.710938 15 15 15h302c8.289062 0 15-6.710938 15-15v-240c0-8.289062-6.710938-15-15-15zm0 0" data-original="#000000" class="active-path" data-old_color="#000000" fill="#E3E9ED"/><path d="m450 361c0-16.539062-13.460938-30-30-30s-30 13.460938-30 30 13.460938 30 30 30 30-13.460938 30-30zm0 0" data-original="#000000" class="active-path" data-old_color="#000000" fill="#E3E9ED"/><path d="m360 481v31h105c8.402344 0 15-7.601562 15-16v-15c0-33-27-60-60-60s-60 27-60 60zm0 0" data-original="#000000" class="active-path" data-old_color="#000000" fill="#E3E9ED"/><path d="m300 361c0-16.539062-13.460938-30-30-30s-30 13.460938-30 30 13.460938 30 30 30 30-13.460938 30-30zm0 0" data-original="#000000" class="active-path" data-old_color="#000000" fill="#E3E9ED"/><path d="m210 481v31h120v-31c0-33.089844-26.910156-60-60-60s-60 26.910156-60 60zm0 0" data-original="#000000" class="active-path" data-old_color="#000000" fill="#E3E9ED"/><path d="m150 361c0-16.539062-13.460938-30-30-30s-30 13.460938-30 30 13.460938 30 30 30 30-13.460938 30-30zm0 0" data-original="#000000" class="active-path" data-old_color="#000000" fill="#E3E9ED"/><path d="m180 481c0-33.089844-26.910156-60-60-60s-60 26.910156-60 60v31h120zm0 0" data-original="#000000" class="active-path" data-old_color="#000000" fill="#E3E9ED"/><path d="m15 512h15v-31c0-33.914062 19.074219-63.148438 46.851562-78.488281-10.382812-10.789063-16.851562-25.382813-16.851562-41.511719 0-33.089844 26.910156-60 60-60v-121h120c16.539062 0 30-13.460938 30-30s-13.460938-30-30-30h-180c-33.136719 0-60 26.863281-60 60v316c0 8.285156 6.714844 16 15 16zm0 0" data-original="#000000" class="active-path" data-old_color="#000000" fill="#E3E9ED"/>
</symbol>
<symbol id="timetable" viewBox="0 0 448 512">
<path d="m64 272c0 4.417969-3.582031 8-8 8s-8-3.582031-8-8 3.582031-8 8-8 8 3.582031 8 8zm0 0" data-original="#000000" class="active-path" data-old_color="#000000" fill="#E3E9ED"/><path d="m64 208c0 4.417969-3.582031 8-8 8s-8-3.582031-8-8 3.582031-8 8-8 8 3.582031 8 8zm0 0" data-original="#000000" class="active-path" data-old_color="#000000" fill="#E3E9ED"/><path d="m224 144c0 4.417969-3.582031 8-8 8s-8-3.582031-8-8 3.582031-8 8-8 8 3.582031 8 8zm0 0" data-original="#000000" class="active-path" data-old_color="#000000" fill="#E3E9ED"/><path d="m64 144c0 4.417969-3.582031 8-8 8s-8-3.582031-8-8 3.582031-8 8-8 8 3.582031 8 8zm0 0" data-original="#000000" class="active-path" data-old_color="#000000" fill="#E3E9ED"/><path d="m144 8c0-4.417969-3.582031-8-8-8s-8 3.582031-8 8v24h16zm0 0" data-original="#000000" class="active-path" data-old_color="#000000" fill="#E3E9ED"/><path d="m144 272c0 4.417969-3.582031 8-8 8s-8-3.582031-8-8 3.582031-8 8-8 8 3.582031 8 8zm0 0" data-original="#000000" class="active-path" data-old_color="#000000" fill="#E3E9ED"/><path d="m224 8c0-4.417969-3.582031-8-8-8s-8 3.582031-8 8v24h16zm0 0" data-original="#000000" class="active-path" data-old_color="#000000" fill="#E3E9ED"/><path d="m64 8c0-4.417969-3.582031-8-8-8s-8 3.582031-8 8v24h16zm0 0" data-original="#000000" class="active-path" data-old_color="#000000" fill="#E3E9ED"/><path d="m352 32c0-4.417969-3.582031-8-8-8h-24v16c0 4.417969-3.582031 8-8 8h-32c-4.417969 0-8-3.582031-8-8v-16h-32v16c0 4.417969-3.582031 8-8 8h-32c-4.417969 0-8-3.582031-8-8v-16h-32v16c0 4.417969-3.582031 8-8 8h-32c-4.417969 0-8-3.582031-8-8v-16h-32v16c0 4.417969-3.582031 8-8 8h-32c-4.417969 0-8-3.582031-8-8v-16h-24c-4.417969 0-8 3.582031-8 8v40h352zm0 0" data-original="#000000" class="active-path" data-old_color="#000000" fill="#E3E9ED"/><path d="m304 8c0-4.417969-3.582031-8-8-8s-8 3.582031-8 8v24h16zm0 0" data-original="#000000" class="active-path" data-old_color="#000000" fill="#E3E9ED"/><path d="m144 144c0 4.417969-3.582031 8-8 8s-8-3.582031-8-8 3.582031-8 8-8 8 3.582031 8 8zm0 0" data-original="#000000" class="active-path" data-old_color="#000000" fill="#E3E9ED"/><path d="m32 376v16h183.769531c-4.90625-4.980469-9.421875-10.328125-13.503906-16zm0 0" data-original="#000000" class="active-path" data-old_color="#000000" fill="#E3E9ED"/><path d="m176 296c.003906-43.160156 20.488281-83.753906 55.207031-109.390625 34.71875-25.640625 79.542969-33.277344 120.792969-20.585937v-78.023438h-352v272h192.0625c-10.558594-19.679688-16.074219-41.667969-16.0625-64zm40-176c13.253906 0 24 10.746094 24 24s-10.746094 24-24 24-24-10.746094-24-24 10.746094-24 24-24zm-160 176c-13.253906 0-24-10.746094-24-24s10.746094-24 24-24 24 10.746094 24 24-10.746094 24-24 24zm0-64c-13.253906 0-24-10.746094-24-24s10.746094-24 24-24 24 10.746094 24 24-10.746094 24-24 24zm0-64c-13.253906 0-24-10.746094-24-24s10.746094-24 24-24 24 10.746094 24 24-10.746094 24-24 24zm80 128c-13.253906 0-24-10.746094-24-24s10.746094-24 24-24 24 10.746094 24 24-10.746094 24-24 24zm0-64c-13.253906 0-24-10.746094-24-24s10.746094-24 24-24 24 10.746094 24 24-10.746094 24-24 24zm0-64c-13.253906 0-24-10.746094-24-24s10.746094-24 24-24 24 10.746094 24 24-10.746094 24-24 24zm0 0" data-original="#000000" class="active-path" data-old_color="#000000" fill="#E3E9ED"/><path d="m312 176c-66.273438 0-120 53.726562-120 120s53.726562 120 120 120 120-53.726562 120-120c-.074219-66.242188-53.757812-119.925781-120-120zm0 224c-57.4375 0-104-46.5625-104-104s46.5625-104 104-104 104 46.5625 104 104c-.066406 57.410156-46.589844 103.933594-104 104zm0 0" data-original="#000000" class="active-path" data-old_color="#000000" fill="#E3E9ED"/><path d="m376 304c0-4.417969 3.582031-8 8-8h16c-.058594-45.46875-34.722656-83.421875-80-87.59375v15.59375c0 4.417969-3.582031 8-8 8s-8-3.582031-8-8v-15.59375c-45.277344 4.171875-79.941406 42.125-80 87.59375h16c4.417969 0 8 3.582031 8 8s-3.582031 8-8 8h-14.472656c7.214844 38.722656 39.253906 67.953125 78.472656 71.59375v-15.59375c0-4.417969 3.582031-8 8-8s8 3.582031 8 8v15.59375c39.21875-3.640625 71.257812-32.871094 78.472656-71.59375h-14.472656c-4.417969 0-8-3.582031-8-8zm-10.878906-33.847656-48 40c-1.4375 1.195312-3.25 1.847656-5.121094 1.847656-.386719.003906-.769531-.027344-1.152344-.089844-2.242187-.324218-4.242187-1.585937-5.503906-3.46875l-16-24c-2.453125-3.675781-1.460938-8.644531 2.214844-11.097656 3.675781-2.453125 8.644531-1.460938 11.097656 2.214844l11.0625 16.601562 41.160156-34.3125c3.398438-2.828125 8.445313-2.367187 11.273438 1.03125 2.828125 3.398438 2.367187 8.445313-1.03125 11.273438zm0 0" data-original="#000000" class="active-path" data-old_color="#000000" fill="#E3E9ED"/><path d="m144 208c0 4.417969-3.582031 8-8 8s-8-3.582031-8-8 3.582031-8 8-8 8 3.582031 8 8zm0 0" data-original="#000000" class="active-path" data-old_color="#000000" fill="#E3E9ED"/>
</symbol>
<symbol id="helptickets" viewBox="0 0 448 512">
<path d="m140.585938 224c-4.417969 0-8 3.585938-8 8s3.582031 8 8 8h16c4.414062 0 8-3.585938 8-8s-3.585938-8-8-8zm0 0" data-original="#000000" class="active-path" data-old_color="#000000" fill="#E3E9ED"/><path d="m28.585938 200h24.40625c-.214844-2.648438-.40625-5.296875-.40625-8v-40h-24c-4.417969 0-8 3.585938-8 8v32c0 4.414062 3.582031 8 8 8zm0 0" data-original="#000000" class="active-path" data-old_color="#000000" fill="#E3E9ED"/><path d="m179.113281 224h42.742188c4.304687-9.808594 6.730469-20.625 6.730469-32v-56.246094c-30.082032-1.90625-58.097657-14.53125-79.59375-36.035156l-.40625-.40625-.410157.40625c-21.496093 21.503906-49.511719 34.128906-79.589843 36.035156v56.246094c0 44.113281 35.886718 80 80 80 26.085937 0 49.230468-12.617188 63.847656-32h-33.320313c-3.3125 9.289062-12.113281 16-22.527343 16h-16c-13.234376 0-24-10.769531-24-24s10.765624-24 24-24h16c10.414062 0 19.214843 6.710938 22.527343 16zm17.472657-72c4.414062 0 8 3.585938 8 8s-3.585938 8-8 8c-4.417969 0-8-3.585938-8-8s3.582031-8 8-8zm-96 16c-4.417969 0-8-3.585938-8-8s3.582031-8 8-8c4.414062 0 8 3.585938 8 8 0 4.425781-3.585938 8-8 8zm0 0" data-original="#000000" class="active-path" data-old_color="#000000" fill="#E3E9ED"/><path d="m108.726562 297.425781-59.191406 9.863281c-14.199218 2.375-26.085937 12.253907-31.015625 25.789063l-18.5117185 50.929687h38.3359375l6.488281-25.9375 15.511719 3.875-5.511719 22.0625h85.753907v-48.808593c-17.777344-3.632813-31.1875-19.109375-31.859376-37.773438zm0 0" data-original="#000000" class="active-path" data-old_color="#000000" fill="#E3E9ED"/><path d="m244.585938 192c0 2.703125-.1875 5.351562-.410157 8h8.410157v40h16v-40c4.414062 0 8-3.585938 8-8v-32c0-4.414062-3.585938-8-8-8h-24zm0 0" data-original="#000000" class="active-path" data-old_color="#000000" fill="#E3E9ED"/><path d="m52.585938 120h8c28.8125 0 55.902343-11.214844 76.277343-31.59375l11.722657-11.71875 11.71875 11.71875c20.375 20.378906 47.472656 31.59375 76.28125 31.59375h8v16h16v-25.199219c0-61.097656-49.707032-110.800781-110.800782-110.800781-29.59375 0-57.417968 11.519531-78.34375 32.457031l-6.769531 6.773438-2.160156.53125c-15.265625 3.824219-25.925781 17.484375-25.925781 33.222656v63.015625h16zm0 0" data-original="#000000" class="active-path" data-old_color="#000000" fill="#E3E9ED"/><path d="m172.585938 296v-11.160156c-7.691407 1.992187-15.699219 3.160156-24 3.160156-8.304688 0-16.3125-1.167969-24-3.160156v11.160156c0 13.230469 10.765624 24 24 24 13.230468 0 24-10.761719 24-24zm0 0" data-original="#000000" class="active-path" data-old_color="#000000" fill="#E3E9ED"/><path d="m348.585938 288c-35.289063 0-64 28.710938-64 64s28.710937 64 64 64c35.285156 0 64-28.710938 64-64s-28.714844-64-64-64zm32 64c0-17.648438-14.355469-32-32-32-17.648438 0-32 14.351562-32 32s14.351562 32 32 32v16c-26.472657 0-48-21.527344-48-48s21.527343-48 48-48c26.46875 0 48 21.527344 48 48zm0 0" data-original="#000000" class="active-path" data-old_color="#000000" fill="#E3E9ED"/><path d="m442.007812 329.65625-1.28125-4.433594c-2-6.878906-4.703124-13.4375-8.03125-19.488281l-2.222656-4.039063 9.855469-16.351562-25.097656-25.097656-16.351563 9.859375-4.039062-2.226563c-6.046875-3.328125-12.601563-6.03125-19.488282-8.03125l-4.429687-1.28125-4.601563-18.574218h-35.488281l-4.601562 18.574218-4.429688 1.28125c-6.878906 2-13.441406 4.703125-19.488281 8.03125l-4.039062 2.226563-16.351563-9.859375-25.097656 25.097656 9.855469 16.351562-2.222657 4.039063c-3.328125 6.050781-6.03125 12.601563-8.03125 19.488281l-1.28125 4.433594-18.558593 4.609375v35.488281l18.574218 4.597656 1.28125 4.433594c2 6.878906 4.703125 13.4375 8.03125 19.488282l2.222656 4.039062-9.855468 16.351562 25.097656 25.097657 16.351562-9.859375 4.039063 2.226562c6.046875 3.328125 12.601563 6.03125 19.488281 8.03125l4.429688 1.28125 4.601562 18.574219h35.488282l4.601562-18.574219 4.429688-1.28125c6.878906-2 13.441406-4.703125 19.488281-8.03125l4.039062-2.226562 16.351563 9.859375 25.097656-25.097657-9.855469-16.351562 2.222657-4.039062c3.328124-6.050782 6.03125-12.601563 8.03125-19.488282l1.28125-4.433594 18.5625-4.609374v-35.476563zm-93.421874 102.34375c-44.113282 0-80-35.886719-80-80s35.886718-80 80-80c44.109374 0 80 35.886719 80 80s-35.890626 80-80 80zm0 0" data-original="#000000" class="active-path" data-old_color="#000000" fill="#E3E9ED"/><path d="m220.585938 321.742188 21.878906-5.421876c1.0625-3.175781 2.3125-6.265624 3.632812-9.296874l-57.65625-9.609376c-.671875 18.675782-14.082031 34.152344-31.855468 37.777344v48.808594h71.03125l-7.03125-1.734375zm0 0" data-original="#000000" class="active-path" data-old_color="#000000" fill="#E3E9ED"/>
</symbol>
<symbol id="student" viewBox="0 0 448 512">

</symbol>
</svg>